<svg xmlns="http://www.w3.org/2000/svg" viewBox="0 0 1200 800" role="img" aria-label="安全与合规检查场景示意">
  <defs>
    <linearGradient id="bg" x1="0" y1="0" x2="1" y2="1">
      <stop offset="0" stop-color="#071423"/>
      <stop offset="1" stop-color="#0b1f33"/>
    </linearGradient>
    <radialGradient id="g" cx="34%" cy="22%" r="62%">
      <stop offset="0" stop-color="#d97706" stop-opacity="0.22"/>
      <stop offset="1" stop-color="#d97706" stop-opacity="0"/>
    </radialGradient>
  </defs>
  <rect width="1200" height="800" fill="url(#bg)"/>
  <rect width="1200" height="800" fill="url(#g)"/>

  <g opacity="0.22" transform="translate(150 160)">
    <rect x="0" y="0" width="520" height="520" rx="28" fill="#081625" stroke="#ffffff" stroke-opacity="0.14"/>
    <rect x="560" y="60" width="340" height="460" rx="28" fill="#081625" stroke="#ffffff" stroke-opacity="0.14"/>
  </g>

  <g opacity="0.55" transform="translate(760 250)">
    <path d="M0 0h240" stroke="#ffffff" stroke-opacity="0.18" stroke-width="6"/>
    <path d="M0 50h200" stroke="#ffffff" stroke-opacity="0.12" stroke-width="4"/>
    <path d="M0 100h220" stroke="#ffffff" stroke-opacity="0.12" stroke-width="4"/>
    <path d="M0 150h160" stroke="#ffffff" stroke-opacity="0.12" stroke-width="4"/>
  </g>

  <g opacity="0.9" transform="translate(240 240)">
    <path d="M120 0c90 40 150 80 150 170 0 150-120 220-150 232-30-12-150-82-150-232 0-90 60-130 150-170Z" fill="#0b1f33" stroke="#ffffff" stroke-opacity="0.14"/>
    <path d="M76 168l42 42 86-92" fill="none" stroke="#0f766e" stroke-width="16" stroke-linecap="round" stroke-linejoin="round"/>
  </g>
</svg>

