<svg xmlns="http://www.w3.org/2000/svg" viewBox="0 0 600 600" role="img" aria-label="二维码预览占位">
  <rect width="600" height="600" fill="#ffffff"/>
  <rect x="36" y="36" width="528" height="528" fill="#f8fafc" stroke="#e5e7eb" stroke-width="8"/>

  <g fill="#0b1f33" opacity="0.92">
    <rect x="92" y="92" width="140" height="140"/>
    <rect x="368" y="92" width="140" height="140"/>
    <rect x="92" y="368" width="140" height="140"/>
  </g>

  <g fill="#0b1f33" opacity="0.55">
    <rect x="276" y="110" width="46" height="46"/>
    <rect x="276" y="176" width="46" height="46"/>
    <rect x="110" y="276" width="46" height="46"/>
    <rect x="176" y="276" width="46" height="46"/>
    <rect x="276" y="276" width="46" height="46"/>
    <rect x="342" y="276" width="46" height="46"/>
    <rect x="408" y="276" width="46" height="46"/>
    <rect x="276" y="342" width="46" height="46"/>
    <rect x="342" y="408" width="46" height="46"/>
    <rect x="408" y="408" width="46" height="46"/>
  </g>

  <g fill="#d97706" opacity="0.9">
    <rect x="268" y="468" width="64" height="16"/>
  </g>
</svg>
